<mxfile host="app.diagrams.net" agent="Mozilla/5.0 (Windows NT 10.0; Win64; x64) AppleWebKit/537.36 (KHTML, like Gecko) Chrome/129.0.0.0 Safari/537.36" version="24.7.14">
  <diagram name="Seite-1" id="ssYKY67UcWPn2c8sS2Ea">
    <mxGraphModel dx="2037" dy="757" grid="1" gridSize="10" guides="1" tooltips="1" connect="1" arrows="1" fold="1" page="1" pageScale="1" pageWidth="827" pageHeight="1169" math="0" shadow="0">
      <root>
        <mxCell id="0" />
        <mxCell id="1" parent="0" />
        <mxCell id="dAiWK70VssxY-llQjGm3-26" style="edgeStyle=orthogonalEdgeStyle;rounded=0;orthogonalLoop=1;jettySize=auto;html=1;curved=1;endArrow=none;endFill=0;" edge="1" parent="1" source="dAiWK70VssxY-llQjGm3-1" target="dAiWK70VssxY-llQjGm3-10">
          <mxGeometry relative="1" as="geometry" />
        </mxCell>
        <mxCell id="dAiWK70VssxY-llQjGm3-27" style="edgeStyle=orthogonalEdgeStyle;rounded=0;orthogonalLoop=1;jettySize=auto;html=1;curved=1;exitX=0.081;exitY=0.043;exitDx=0;exitDy=0;exitPerimeter=0;" edge="1" parent="1" source="dAiWK70VssxY-llQjGm3-1" target="dAiWK70VssxY-llQjGm3-9">
          <mxGeometry relative="1" as="geometry" />
        </mxCell>
        <mxCell id="dAiWK70VssxY-llQjGm3-1" value="Roboteranwendung" style="rounded=1;whiteSpace=wrap;html=1;fillColor=#7EA6E0;strokeColor=#6c8ebf;" vertex="1" parent="1">
          <mxGeometry x="354" y="530" width="120" height="30" as="geometry" />
        </mxCell>
        <mxCell id="dAiWK70VssxY-llQjGm3-4" value="Löten" style="rounded=1;whiteSpace=wrap;html=1;fillColor=#A9C4EB;strokeColor=#6c8ebf;fontSize=8;" vertex="1" parent="1">
          <mxGeometry x="414" y="450" width="60" height="20" as="geometry" />
        </mxCell>
        <mxCell id="dAiWK70VssxY-llQjGm3-5" value="Biegen" style="rounded=1;whiteSpace=wrap;html=1;fillColor=#A9C4EB;strokeColor=#6c8ebf;fontSize=8;" vertex="1" parent="1">
          <mxGeometry x="414" y="610" width="60" height="20" as="geometry" />
        </mxCell>
        <mxCell id="dAiWK70VssxY-llQjGm3-6" value="Entgraten" style="rounded=1;whiteSpace=wrap;html=1;fillColor=#A9C4EB;strokeColor=#6c8ebf;fontSize=8;" vertex="1" parent="1">
          <mxGeometry x="210" y="680" width="60" height="20" as="geometry" />
        </mxCell>
        <mxCell id="dAiWK70VssxY-llQjGm3-7" value="Verkabelung" style="rounded=1;whiteSpace=wrap;html=1;fillColor=#A9C4EB;strokeColor=#6c8ebf;fontSize=8;" vertex="1" parent="1">
          <mxGeometry x="460" y="680" width="60" height="20" as="geometry" />
        </mxCell>
        <mxCell id="dAiWK70VssxY-llQjGm3-9" value="Schweissen" style="rounded=1;whiteSpace=wrap;html=1;fillColor=#A9C4EB;strokeColor=#6c8ebf;fontSize=8;" vertex="1" parent="1">
          <mxGeometry x="294" y="470" width="60" height="20" as="geometry" />
        </mxCell>
        <mxCell id="dAiWK70VssxY-llQjGm3-10" value="Kleben" style="rounded=1;whiteSpace=wrap;html=1;fillColor=#A9C4EB;strokeColor=#6c8ebf;fontSize=8;" vertex="1" parent="1">
          <mxGeometry x="250" y="520" width="60" height="20" as="geometry" />
        </mxCell>
        <mxCell id="dAiWK70VssxY-llQjGm3-11" value="Sortieren" style="rounded=1;whiteSpace=wrap;html=1;fillColor=#A9C4EB;strokeColor=#6c8ebf;fontSize=8;" vertex="1" parent="1">
          <mxGeometry x="590" y="440" width="60" height="20" as="geometry" />
        </mxCell>
        <mxCell id="dAiWK70VssxY-llQjGm3-12" value="Beschichten" style="rounded=1;whiteSpace=wrap;html=1;fillColor=#A9C4EB;strokeColor=#6c8ebf;fontSize=8;" vertex="1" parent="1">
          <mxGeometry x="660" y="570" width="90" height="20" as="geometry" />
        </mxCell>
        <mxCell id="dAiWK70VssxY-llQjGm3-13" value="Dosieren" style="rounded=1;whiteSpace=wrap;html=1;fillColor=#A9C4EB;strokeColor=#6c8ebf;fontSize=8;" vertex="1" parent="1">
          <mxGeometry x="660" y="610" width="90" height="20" as="geometry" />
        </mxCell>
        <mxCell id="dAiWK70VssxY-llQjGm3-14" value="Verpacken" style="rounded=1;whiteSpace=wrap;html=1;fillColor=#A9C4EB;strokeColor=#6c8ebf;fontSize=8;" vertex="1" parent="1">
          <mxGeometry x="660" y="650" width="90" height="20" as="geometry" />
        </mxCell>
        <mxCell id="dAiWK70VssxY-llQjGm3-15" value="Maschinenbestücken" style="rounded=1;whiteSpace=wrap;html=1;fillColor=#A9C4EB;strokeColor=#6c8ebf;fontSize=8;" vertex="1" parent="1">
          <mxGeometry x="620" y="690" width="130" height="20" as="geometry" />
        </mxCell>
        <mxCell id="dAiWK70VssxY-llQjGm3-16" value="Schleifen / Polieren" style="rounded=1;whiteSpace=wrap;html=1;fillColor=#A9C4EB;strokeColor=#6c8ebf;fontSize=8;" vertex="1" parent="1">
          <mxGeometry x="620" y="730" width="130" height="20" as="geometry" />
        </mxCell>
        <mxCell id="dAiWK70VssxY-llQjGm3-17" value="Laserschneiden / Schweissen" style="rounded=1;whiteSpace=wrap;html=1;fillColor=#A9C4EB;strokeColor=#6c8ebf;fontSize=8;" vertex="1" parent="1">
          <mxGeometry x="620" y="770" width="130" height="20" as="geometry" />
        </mxCell>
        <mxCell id="dAiWK70VssxY-llQjGm3-18" value="Montage" style="rounded=1;whiteSpace=wrap;html=1;fillColor=#A9C4EB;strokeColor=#6c8ebf;fontSize=8;" vertex="1" parent="1">
          <mxGeometry x="510" y="370" width="64" height="20" as="geometry" />
        </mxCell>
        <mxCell id="dAiWK70VssxY-llQjGm3-19" value="Messung" style="rounded=1;whiteSpace=wrap;html=1;fillColor=#A9C4EB;strokeColor=#6c8ebf;fontSize=8;" vertex="1" parent="1">
          <mxGeometry x="680" y="810" width="70" height="20" as="geometry" />
        </mxCell>
        <mxCell id="dAiWK70VssxY-llQjGm3-20" value="Materialhandhabung" style="rounded=1;whiteSpace=wrap;html=1;fillColor=#A9C4EB;strokeColor=#6c8ebf;fontSize=8;" vertex="1" parent="1">
          <mxGeometry x="620" y="930" width="130" height="20" as="geometry" />
        </mxCell>
        <mxCell id="dAiWK70VssxY-llQjGm3-21" value="Qualitätskontrolle" style="rounded=1;whiteSpace=wrap;html=1;fillColor=#A9C4EB;strokeColor=#6c8ebf;fontSize=8;" vertex="1" parent="1">
          <mxGeometry x="620" y="890" width="130" height="20" as="geometry" />
        </mxCell>
        <mxCell id="dAiWK70VssxY-llQjGm3-22" value="Menschsupport" style="rounded=1;whiteSpace=wrap;html=1;fillColor=#A9C4EB;strokeColor=#6c8ebf;fontSize=8;" vertex="1" parent="1">
          <mxGeometry x="620" y="970" width="130" height="20" as="geometry" />
        </mxCell>
      </root>
    </mxGraphModel>
  </diagram>
</mxfile>
